<?xml version="1.0" encoding="utf-8"?>
<!-- Generator: Adobe Illustrator 15.0.0, SVG Export Plug-In . SVG Version: 6.00 Build 0)  -->
<!DOCTYPE svg PUBLIC "-//W3C//DTD SVG 1.1//EN" "http://www.w3.org/Graphics/SVG/1.1/DTD/svg11.dtd">
<svg version="1.1" id="Capa_1" xmlns="http://www.w3.org/2000/svg" xmlns:xlink="http://www.w3.org/1999/xlink" x="0px" y="0px"
	 width="94.101px" height="34.244px" viewBox="0 0 94.101 34.244" enable-background="new 0 0 94.101 34.244" xml:space="preserve">
<g>
	<path fill="#62A7D9" d="M32.026,23.746c0,3.639-2.978,6.617-6.617,6.617H12.176c-3.639,0-6.617-2.978-6.617-6.617V10.512
		c0-3.639,2.978-6.617,6.617-6.617H25.41c3.639,0,6.617,2.978,6.617,6.617V23.746z"/>
	<path opacity="0.25" fill="#231F20" d="M23.599,15.047l-4.807-4.806l-1.562,4.806h-5.054l3.813,3.816l-1.287,3.963l7.537,7.536
		h3.168c0.632,0,1.241-0.095,1.821-0.262c2.76-0.796,4.797-3.346,4.797-6.355v-0.271v-1.81l-6.618-6.617H23.599z"/>
	<polygon fill="#FFFFFF" points="25.408,15.047 20.354,15.047 18.792,10.241 17.23,15.047 12.176,15.047 16.265,18.019 
		14.703,22.826 18.792,19.854 22.882,22.826 21.32,18.019 	"/>
</g>
<g>
	<path fill="#62A7D9" d="M60.734,23.746c0,3.639-2.978,6.617-6.617,6.617H40.884c-3.639,0-6.617-2.978-6.617-6.617V10.512
		c0-3.639,2.978-6.617,6.617-6.617h13.234c3.639,0,6.617,2.978,6.617,6.617V23.746z"/>
	<path opacity="0.25" fill="#231F20" d="M52.307,15.047L47.5,10.241l-1.562,4.806h-5.054l3.813,3.816l-1.287,3.963l7.537,7.536
		h3.168c0.632,0,1.241-0.095,1.821-0.262c2.76-0.796,4.797-3.346,4.797-6.355v-0.271v-1.81l-6.618-6.617H52.307z"/>
	<polygon fill="#FFFFFF" points="54.116,15.047 49.062,15.047 47.5,10.241 45.938,15.047 40.884,15.047 44.973,18.019 
		43.411,22.826 47.5,19.854 51.59,22.826 50.028,18.019 	"/>
</g>
<path fill="#62A7D9" d="M89.401,23.746c0,3.639-2.978,6.617-6.617,6.617H69.55c-3.639,0-6.617-2.978-6.617-6.617V10.512
	c0-3.639,2.978-6.617,6.617-6.617h13.234c3.639,0,6.617,2.978,6.617,6.617V23.746z"/>
<path opacity="0.25" fill="#231F20" d="M80.974,15.047l-4.807-4.806l-1.562,4.806h-5.054l3.813,3.816l-1.287,3.963l7.537,7.536
	h3.168c0.632,0,1.241-0.095,1.821-0.262c2.76-0.796,4.797-3.346,4.797-6.355v-0.271v-1.81l-6.618-6.617H80.974z"/>
<polygon fill="#FFFFFF" points="82.783,15.047 77.729,15.047 76.167,10.241 74.605,15.047 69.551,15.047 73.64,18.019 
	72.077,22.826 76.167,19.854 80.256,22.826 78.694,18.019 "/>
</svg>
